<svg xmlns="http://www.w3.org/2000/svg" width="1080" height="1080" viewBox="0 0 1080 1080" version="1.1"><path d="M 80.225 509.750 L 80.500 623.500 83.224 631.500 C 87.023 642.654, 92.316 651.196, 100.537 659.442 C 108.923 667.854, 117.523 673.878, 137 684.988 C 144.975 689.537, 163.029 700.176, 177.120 708.629 C 191.211 717.083, 202.994 724, 203.305 724 C 203.616 724, 214.812 717.423, 228.185 709.384 C 241.558 701.345, 258.800 691.153, 266.500 686.734 C 287.917 674.444, 296.764 668.267, 305.520 659.492 C 314.691 650.302, 320.666 640.032, 324.257 627.287 C 326.447 619.514, 326.452 619.294, 326.766 507.750 L 327.081 396 203.516 396 L 79.951 396 80.225 509.750 M 419.024 397.603 C 408.194 400.514, 398.236 408.748, 393.236 418.929 C 390.808 423.872, 390.500 425.627, 390.500 434.500 C 390.500 442.952, 390.861 445.232, 392.830 449.231 C 398.183 460.101, 406.537 466.855, 434.558 482.970 C 455.082 494.773, 459.800 498.379, 463.420 505.030 C 465.685 509.192, 466.308 511.596, 466.266 516.023 C 466.077 536.016, 440.989 545.330, 418.113 533.899 C 406.639 528.165, 401.229 520.650, 397.490 505.250 C 395.921 498.790, 395.472 498, 393.365 498 L 391 498 391 523 L 391 548 393.392 548 C 395.165 548, 395.961 547.291, 396.472 545.256 C 398.077 538.861, 399.670 538.717, 415.129 543.569 C 441.282 551.776, 461.892 548.524, 475.265 534.081 C 478.233 530.875, 481.691 526.061, 482.950 523.383 C 487.784 513.099, 487.332 500.156, 481.776 489.731 C 476.409 479.661, 470.607 475.357, 436.497 456.140 C 414.718 443.871, 408 437.074, 408 427.310 C 408 408.961, 429.206 399.943, 449.631 409.605 C 460.762 414.871, 467.416 424.249, 470.663 439.250 C 472.172 446.219, 472.575 447, 474.670 447 L 477 447 477 421.500 L 477 396 474.578 396 C 472.696 396, 471.897 396.781, 471 399.500 C 469.403 404.338, 466.220 404.983, 458.515 402.030 C 442.817 396.015, 430.199 394.600, 419.024 397.603 M 501 401.361 C 501 403.519, 501.515 403.769, 506.975 404.264 C 514.968 404.989, 519.676 407.917, 520.716 412.811 C 521.147 414.840, 521.500 441.925, 521.500 473 C 521.500 533.940, 521.483 534.143, 516.239 537.579 C 514.831 538.501, 510.827 539.485, 507.340 539.765 C 501.486 540.235, 501 540.455, 501 542.637 L 501 545 532.500 545 L 564 545 564 542.500 C 564 540.181, 563.653 540, 559.212 540 C 552.340 540, 545.846 536.514, 544.306 532 C 543.505 529.650, 543.094 519.713, 543.056 501.750 L 543 475 576 475 L 609 475 608.944 501.750 C 608.906 519.768, 608.498 529.612, 607.694 531.906 C 605.957 536.861, 602.204 539.190, 594.816 539.896 C 589.368 540.417, 588.500 540.775, 588.500 542.500 C 588.500 544.452, 589.255 544.506, 619.750 544.764 L 651 545.028 651 542.514 C 651 540.186, 650.653 540, 646.316 540 C 640.524 540, 633.704 536.840, 632.154 533.438 C 630.575 529.973, 630.510 414.169, 632.085 410.712 C 633.685 407.200, 638.385 404.866, 645.077 404.259 C 650.495 403.768, 651 403.520, 651 401.347 L 651 398.972 619.750 399.236 L 588.500 399.500 588.180 401.750 C 587.887 403.814, 588.260 404.002, 592.680 404.022 C 597.907 404.046, 604.607 406.606, 607 409.493 C 608.235 410.983, 608.555 416.140, 608.809 438.652 L 609.118 466 575.986 466 L 542.855 466 543.177 439.250 C 543.418 419.316, 543.839 411.905, 544.831 410.165 C 546.650 406.972, 553.513 404.048, 559.250 404.022 C 563.644 404.002, 564 403.813, 564 401.500 L 564 399 532.500 399 L 501 399 501 401.361 M 659 401.500 C 659 403.808, 659.365 404.004, 663.750 404.056 C 670.206 404.133, 674.900 405.944, 677.406 409.323 C 679.476 412.115, 679.500 412.822, 679.500 471.823 C 679.500 519.658, 679.236 531.963, 678.169 533.835 C 676.350 537.028, 669.487 539.952, 663.750 539.978 C 659.352 539.998, 659 540.186, 659 542.508 L 659 545.017 715.180 544.758 L 771.360 544.500 777.656 526.250 L 783.952 508 781.226 508.023 C 778.906 508.043, 777.924 509.070, 774.631 514.926 C 769.889 523.359, 762.987 530.588, 757 533.392 C 752.820 535.350, 750.815 535.500, 728.788 535.500 C 707.367 535.500, 704.904 535.328, 703.288 533.716 C 701.667 532.098, 701.470 529.180, 701.182 502.377 L 700.863 472.823 721.682 473.171 C 750.257 473.649, 750.585 473.841, 754.478 492.315 C 754.942 494.517, 755.553 495.061, 757.285 494.815 L 759.500 494.500 759.500 469 C 759.500 443.513, 759.499 443.500, 757.307 443.188 C 755.462 442.925, 755.015 443.481, 754.493 446.688 C 753.569 452.361, 751.154 458.560, 749.214 460.236 C 745.616 463.344, 740.674 464, 720.851 464 L 701 464 701 435.914 L 701 407.828 727.250 408.172 C 755.760 408.544, 757.369 408.840, 761.850 414.537 C 763.756 416.959, 766.052 423.014, 767.430 429.250 C 767.897 431.363, 768.623 432, 770.563 432 L 773.088 432 772.483 417.750 C 772.150 409.913, 771.672 402.488, 771.420 401.250 L 770.962 399 714.981 399 L 659 399 659 401.500 M 791.421 400.345 C 790.420 402.953, 791.902 404, 796.591 404 C 801.889 404, 806.733 405.864, 809.500 408.967 C 811.453 411.158, 811.500 412.624, 811.500 472 C 811.500 531.273, 811.450 532.845, 809.511 534.988 C 806.521 538.292, 804.098 539.287, 797.500 539.922 C 792.359 540.417, 791.500 540.786, 791.500 542.500 C 791.500 544.452, 792.255 544.506, 822.750 544.764 L 854 545.028 854 542.514 C 854 540.198, 853.642 540, 849.468 540 C 844.117 540, 839.277 538.147, 836.500 535.035 C 834.618 532.926, 834.482 531.142, 834.192 504.852 L 833.884 476.910 841.083 477.205 L 848.282 477.500 872.504 511 L 896.725 544.500 916.362 544.771 L 936 545.042 936 542.609 C 936 540.524, 935.392 540.075, 931.750 539.468 C 921.274 537.724, 913.330 532.782, 905.609 523.209 C 902.634 519.519, 893.436 507.058, 885.170 495.518 L 870.141 474.536 876.540 472.381 C 889.731 467.938, 899.050 459.789, 903.043 449.202 C 906.083 441.143, 905.491 429.568, 901.636 421.689 C 896.724 411.649, 885.748 403.746, 872.875 400.982 C 869.646 400.289, 852.433 399.620, 829.760 399.307 C 796.189 398.844, 791.953 398.959, 791.421 400.345 M 845 408.494 C 844.175 408.702, 841.362 409.154, 838.750 409.498 L 834 410.123 834 439.941 L 834 469.759 841.750 469.364 C 856.420 468.614, 864.195 465.928, 871.335 459.144 C 876.768 453.981, 879.216 448.663, 879.781 440.798 C 880.344 432.956, 878.919 426.417, 875.452 420.924 C 872.513 416.268, 866.159 411.425, 861.112 409.993 C 857.018 408.832, 847.259 407.924, 845 408.494 M 149.977 465.500 C 149.964 465.775, 149.943 474.663, 149.930 485.250 L 149.906 504.500 172.953 504.768 L 196 505.037 196 528.018 L 196 551 203 551 L 210 551 210 528.018 L 210 505.037 233.047 504.768 L 256.094 504.500 256.098 485 L 256.101 465.500 250.551 465.200 L 245 464.900 245 474.950 L 245 485 239 485 L 233 485 233 475 L 233 465 227 465 L 221 465 221 475 L 221 485 215 485 L 209 485 209 475 L 209 465 203 465 L 197 465 197 475 L 197 485 191 485 L 185 485 185 475 L 185 465 179.500 465 L 174 465 174 475 L 174 485 167.500 485 L 161 485 161 475 L 161 465 155.500 465 C 152.475 465, 149.990 465.225, 149.977 465.500 M 149.500 544.750 L 149.500 571.500 163.437 572 L 177.374 572.500 163.437 584.207 L 149.500 595.913 149.641 603.207 L 149.782 610.500 175.959 626.250 C 190.357 634.913, 202.592 642, 203.148 642 C 203.705 642, 216.035 634.913, 230.549 626.250 L 256.937 610.500 256.969 603.306 L 257 596.113 243.750 584.957 C 236.463 578.821, 230.350 573.395, 230.167 572.900 C 229.979 572.394, 235.784 572, 243.417 572 L 257 572 257 545 L 257 518 240 518 L 223 518 222.976 534.750 L 222.952 551.500 215.976 557.286 L 209 563.073 209 574.907 L 209 586.741 221.750 597.539 C 228.762 603.478, 235.159 608.937, 235.964 609.669 C 237.186 610.780, 231.849 611, 203.714 611 C 185.171 611, 170.036 610.663, 170.080 610.250 C 170.124 609.837, 176.086 604.535, 183.330 598.467 L 196.500 587.433 196.746 574.967 L 196.992 562.500 189.950 556.675 L 182.908 550.851 183.204 534.424 L 183.500 517.997 166.500 517.998 L 149.500 517.999 149.500 544.750" stroke="none" fill="#fc141c" fill-rule="evenodd"/><path d="M 197.355 475.500 C 197.352 480.450, 197.521 482.601, 197.731 480.280 C 197.940 477.959, 197.943 473.909, 197.736 471.280 C 197.530 468.651, 197.358 470.550, 197.355 475.500 M 161.750 504.747 C 167.938 504.922, 178.063 504.922, 184.250 504.747 C 190.438 504.571, 185.375 504.428, 173 504.428 C 160.625 504.428, 155.563 504.571, 161.750 504.747 M 221.750 504.747 C 227.938 504.922, 238.063 504.922, 244.250 504.747 C 250.438 504.571, 245.375 504.428, 233 504.428 C 220.625 504.428, 215.563 504.571, 221.750 504.747 M 209.382 574.500 C 209.384 581.100, 209.546 583.670, 209.741 580.211 C 209.937 576.752, 209.936 571.352, 209.738 568.211 C 209.540 565.070, 209.380 567.900, 209.382 574.500 M 667.233 575.933 C 655.938 578.708, 647.546 583.468, 638.905 592 C 623.799 606.917, 616.902 624.908, 616.860 649.500 C 616.834 665.004, 618.894 674.981, 624.501 686.500 C 635.849 709.817, 654.603 722.294, 680.362 723.664 C 698.408 724.624, 713.913 719.459, 725.109 708.759 L 730.718 703.399 732.506 710.449 C 735.227 721.175, 735.199 721.145, 741.811 720.798 L 747.500 720.500 747.762 682.250 L 748.024 644 716.512 644 L 685 644 685 652 L 685 660 707.500 660 L 730 660 729.985 663.750 C 729.927 678.439, 720.129 696.329, 709.051 701.971 C 695.343 708.952, 675.339 708.663, 661.790 701.289 C 650.995 695.414, 641.720 682.367, 638.399 668.387 C 636.176 659.027, 636.161 638.711, 638.371 630 C 642.600 613.332, 651.629 601.452, 664.833 595.182 C 671.611 591.963, 673.284 591.597, 683.058 591.194 C 691.978 590.826, 694.993 591.107, 700.674 592.832 C 713.704 596.790, 722.168 604.727, 725.644 616.250 L 727.379 622 736.829 622 L 746.279 622 745.665 616.821 C 744.111 603.701, 732.291 587.973, 718.925 581.240 C 704.719 574.085, 683.587 571.915, 667.233 575.933 M 390.243 648.750 L 390.500 720.500 438 720.500 L 485.500 720.500 485.789 711.750 L 486.078 703 448.039 703 L 410 703 410 640 L 410 577 399.993 577 L 389.987 577 390.243 648.750 M 501.243 648.750 L 501.500 720.500 551.500 720.500 L 601.500 720.500 601.789 711.750 L 602.078 703 561.539 703 L 521 703 521 679 L 521 655 558.500 655 L 596 655 596 646.500 L 596 638 558.500 638 L 521 638 521 616 L 521 594 561 594 L 601 594 601 585.500 L 601 577 550.993 577 L 500.987 577 501.243 648.750 M 813.107 579.217 C 812.629 580.473, 800.034 612.598, 785.119 650.607 C 770.204 688.615, 758 720.003, 758 720.357 C 758 721.639, 777.847 721.057, 778.660 719.750 C 779.088 719.063, 782.869 709.275, 787.063 698 L 794.688 677.500 824.519 677.500 L 854.351 677.500 861.730 697.963 C 865.788 709.218, 869.589 719.005, 870.177 719.713 C 870.913 720.601, 874.258 721, 880.956 721 C 886.297 721, 890.900 720.767, 891.185 720.482 C 891.470 720.197, 880.258 690.609, 866.270 654.732 C 852.282 618.854, 839.817 586.800, 838.570 583.500 L 836.302 577.500 825.139 577.217 C 814.313 576.943, 813.949 577.003, 813.107 579.217 M 905.243 648.750 L 905.500 720.500 952.750 720.760 L 1000 721.020 1000 712.010 L 1000 703 962.500 703 L 925 703 925 640 L 925 577 914.993 577 L 904.987 577 905.243 648.750 M 813.034 627.790 C 806.776 644.680, 801.460 659.063, 801.221 659.750 C 800.881 660.727, 805.942 661, 824.393 661 C 837.377 661, 848 660.858, 848 660.684 C 848 660.193, 824.952 597.619, 824.666 597.333 C 824.527 597.194, 819.293 610.899, 813.034 627.790" stroke="none" fill="#fcfcfc" fill-rule="evenodd"/></svg>