<?xml version="1.0" encoding="UTF-8"?>
<svg version="1.1" xmlns="http://www.w3.org/2000/svg" width="1080" height="1080">
<path d="M0 0 C81.51 0 163.02 0 247 0 C247.061875 53.026875 247.061875 53.026875 247.125 107.125 C247.14320801 118.2742627 247.16141602 129.42352539 247.18017578 140.91064453 C247.18920898 154.55834961 247.18920898 154.55834961 247.19088745 160.9538269 C247.19274562 165.40656541 247.20022021 169.8592559 247.21115112 174.3119812 C247.22493677 180.00356941 247.22896983 185.69508846 247.22614455 191.38669181 C247.22673477 193.46809074 247.23066048 195.54949226 247.23843026 197.63087678 C247.33427291 224.57149681 243.56041545 246.07115207 224 266 C223.05640625 266.98033203 223.05640625 266.98033203 222.09375 267.98046875 C210.20229155 279.42363809 194.34242172 287.0180191 180.03979492 294.93701172 C174.37580296 298.08074142 168.77694562 301.2706379 163.3125 304.75 C156.03435205 309.36440228 148.72894848 313.93196472 141.37411499 318.42321777 C140.00669717 319.26178465 138.64256628 320.10573663 137.28189087 320.9552002 C135.35889646 322.1547084 133.42528151 323.33500124 131.48828125 324.51171875 C130.90868652 324.87885483 130.3290918 325.24599091 129.73193359 325.62425232 C127.23937099 327.11535194 125.45242575 328.00774519 122.51855469 327.95751953 C119.20170506 326.69649934 116.23334734 325.00848208 113.21484375 323.16796875 C112.56605759 322.78028824 111.91727142 322.39260773 111.24882507 321.99317932 C109.14089744 320.73139884 107.03926972 319.45950626 104.9375 318.1875 C103.47551058 317.31018392 102.01310551 316.43356013 100.55029297 315.55761719 C96.36169571 313.04694102 92.18020493 310.52461604 88 308 C85.30934747 306.37765027 82.61834108 304.75589752 79.92651367 303.13549805 C78.39331656 302.21252217 76.86092486 301.28820706 75.3293457 300.36254883 C69.6272175 296.93147053 63.85700519 293.62939935 58.07226562 290.33984375 C34.08020024 276.66504614 11.06638619 262.29162185 2.22297192 234.5636797 C-0.68743285 223.75523144 -0.40043166 213.07734264 -0.34057617 201.96166992 C-0.33965583 199.71733014 -0.34005992 197.47298949 -0.34167194 195.22865009 C-0.34234575 189.24993579 -0.32503168 183.27140375 -0.30384064 177.29273224 C-0.28668215 171.67061322 -0.28594729 166.04853723 -0.28381348 160.4263916 C-0.26810781 144.01340385 -0.22622407 127.60044958 -0.1875 111.1875 C-0.125625 74.495625 -0.06375 37.80375 0 0 Z M70 70 C70 82.54 70 95.08 70 108 C85.51 108 101.02 108 117 108 C116.505 108.99 116.505 108.99 116 110 C115.91050583 111.45037107 115.8824156 112.90478629 115.88647461 114.35791016 C115.88655014 115.25869293 115.88662567 116.15947571 115.88670349 117.08755493 C115.89186478 118.06155243 115.89702606 119.03554993 115.90234375 120.0390625 C115.9037587 121.03505463 115.90517365 122.03104675 115.90663147 123.05722046 C115.91224064 126.24651053 115.9247947 129.43573106 115.9375 132.625 C115.94251382 134.78385315 115.94707693 136.94270741 115.95117188 139.1015625 C115.96221305 144.40106857 115.97948386 149.70052248 116 155 C120.62 155 125.24 155 130 155 C130 139.49 130 123.98 130 108 C145.18 108 160.36 108 176 108 C176 95.46 176 82.92 176 70 C172.37 70 168.74 70 165 70 C165 76.6 165 83.2 165 90 C161.04 90 157.08 90 153 90 C153 83.4 153 76.8 153 70 C149.04 70 145.08 70 141 70 C141 76.6 141 83.2 141 90 C137.04 90 133.08 90 129 90 C129 83.4 129 76.8 129 70 C125.37 70 121.74 70 118 70 C118 76.27 118 82.54 118 89 C111.565 89.495 111.565 89.495 105 90 C105 83.4 105 76.8 105 70 C101.37 70 97.74 70 94 70 C94 76.6 94 83.2 94 90 C90.04 89.67 86.08 89.34 82 89 C81.67 82.73 81.34 76.46 81 70 C77.37 70 73.74 70 70 70 Z M70 122 C70 139.82 70 157.64 70 176 C78.91 176 87.82 176 97 176 C97 176.66 97 177.32 97 178 C96.46632813 178.22429687 95.93265625 178.44859375 95.3828125 178.6796875 C91.56067528 180.79752747 88.42382221 183.76243274 85.1574707 186.63598633 C82.4826117 188.96771254 79.93670521 191.03997142 76.92578125 192.94140625 C72.58065431 195.712122 70.46479923 197.71869887 68.68359375 202.62890625 C67.85430725 207.06085711 67.88401294 210.94216452 70 215 C74.74712227 219.81041723 81.15531198 222.5844133 87.14257812 225.54248047 C91.74298888 227.8890673 96.10237179 230.61058171 100.5 233.3125 C102.1549938 234.30418279 103.81120548 235.2938365 105.46875 236.28125 C108.25434198 237.94609462 111.02568853 239.62970744 113.78125 241.34375 C114.8434375 241.9934375 115.905625 242.643125 117 243.3125 C117.886875 243.86550781 118.77375 244.41851563 119.6875 244.98828125 C122.5137378 246.22476029 123.1304796 245.9948299 126 245 C128.02643794 243.93122687 130.02180275 242.80290801 131.99609375 241.640625 C132.57796951 241.30016144 133.15984528 240.95969788 133.75935364 240.60891724 C136.96624728 238.72768066 140.15785818 236.8210084 143.34863281 234.91259766 C143.99895477 234.52385468 144.64927673 234.13511169 145.31930542 233.73458862 C146.63711638 232.94677106 147.95443715 232.15813298 149.27127075 231.36868286 C153.30718577 228.96264329 157.39117445 226.69626475 161.55078125 224.5078125 C171.47989309 219.66245739 171.47989309 219.66245739 177.85546875 211.1796875 C178.66526235 205.71222201 178.37091599 201.94525764 175.14453125 197.3671875 C172.57388 194.96008503 169.89420976 193.00426878 167 191 C165.05180222 189.40884245 163.1140733 187.8047731 161.1875 186.1875 C159.46146039 184.7878017 157.73242141 183.3917917 156 182 C155.10925781 181.25363281 154.21851563 180.50726562 153.30078125 179.73828125 C151.21464134 177.79906202 151.21464134 177.79906202 149 178 C149 177.34 149 176.68 149 176 C158.24 176 167.48 176 177 176 C176.67 158.18 176.34 140.36 176 122 C165.11 122 154.22 122 143 122 C143.14487559 132.74064865 143.14487559 132.74064865 143.42285156 143.47802734 C143.49717658 154.40205452 143.49717658 154.40205452 139.30126953 158.88037109 C137.68881915 160.13309007 136.03370416 161.28984328 134.34933472 162.44348145 C131.53572183 164.44954902 130.09674709 165.76027787 128.7890625 169.00048828 C128.31752503 172.37391207 128.22984458 175.47262614 128.375 178.875 C128.41403442 180.60254517 128.41403442 180.60254517 128.45385742 182.36499023 C128.8926023 188.71078335 129.76256398 193.20476523 134.47802734 197.64404297 C136.93013943 199.54007321 139.45546194 201.22234873 142.11376953 202.81494141 C145.0828945 204.68034816 147.60192074 206.95359129 150.25 209.25 C153.25396615 212.1010723 153.25396615 212.1010723 157 213 C157 213.66 157 214.32 157 215 C134.56 215 112.12 215 89 215 C89 214.34 89 213.68 89 213 C89.72960937 212.75378906 90.45921875 212.50757813 91.2109375 212.25390625 C94.3015674 210.86442138 96.1714487 209.26386052 98.625 206.9375 C103.18508616 202.7060687 107.90597557 198.74902251 112.75 194.84765625 C116.04413386 192.33568921 116.04413386 192.33568921 117.43334961 188.63671875 C117.67186622 185.42458865 117.81821899 182.21875218 117.9375 179 C118.03740234 177.90042969 118.13730469 176.80085938 118.24023438 175.66796875 C118.35013444 172.03480189 118.23117189 169.43416336 117 166 C114.84529057 164.20828971 112.87182494 162.76222198 110.5234375 161.2890625 C104.58790102 157.48459026 104.58790102 157.48459026 103.25454712 154.11755371 C102.20585998 148.89290346 102.47937398 143.67372115 102.6875 138.375 C102.790625 132.97125 102.89375 127.5675 103 122 C92.11 122 81.22 122 70 122 Z " fill="#FE161F" transform="translate(80,396)"/>
<path d="M0 0 C20.79 0 41.58 0 63 0 C63 1.65 63 3.3 63 5 C62.11957031 5.10957031 61.23914063 5.21914063 60.33203125 5.33203125 C58.58986328 5.56986328 58.58986328 5.56986328 56.8125 5.8125 C55.66394531 5.96332031 54.51539063 6.11414063 53.33203125 6.26953125 C49.78224412 7.04773781 47.73841128 7.60206614 45 10 C42.87521151 16.50223546 42.66190906 22.69812072 42.5859375 29.5 C42.56829346 30.45519531 42.55064941 31.41039062 42.5324707 32.39453125 C42.46986721 35.92952287 42.42336167 39.46478486 42.375 43 C42.25125 50.92 42.1275 58.84 42 67 C63.78 67 85.56 67 108 67 C107.896875 58.729375 107.79375 50.45875 107.6875 41.9375 C107.66260498 39.33866943 107.63770996 36.73983887 107.61206055 34.06225586 C107.57975677 31.98810037 107.54638109 29.91396117 107.51171875 27.83984375 C107.50547485 26.77447388 107.49923096 25.709104 107.49279785 24.6114502 C107.37812294 18.66155981 106.90613981 14.24005596 104 9 C102.35528372 7.59990537 102.35528372 7.59990537 100.375 7.125 C99.68148437 6.91488281 98.98796875 6.70476562 98.2734375 6.48828125 C94.53924659 5.6862643 90.80797774 5.25562814 87 5 C87 3.35 87 1.7 87 0 C107.79 0 128.58 0 150 0 C150 1.65 150 3.3 150 5 C149.20335937 5.09796875 148.40671875 5.1959375 147.5859375 5.296875 C139.06918723 6.48292029 139.06918723 6.48292029 132 11 C131.02932511 13.91202467 130.87002903 15.77640823 130.85955811 18.80685425 C130.85384796 19.79662262 130.84813782 20.78639099 130.84225464 21.80615234 C130.84113678 22.89089844 130.84001892 23.97564453 130.83886719 25.09326172 C130.83390228 26.23658966 130.82893738 27.3799176 130.82382202 28.55789185 C130.80919028 32.34849647 130.80239705 36.13905925 130.796875 39.9296875 C130.79112485 42.55901084 130.7853671 45.18833416 130.77960205 47.81765747 C130.77003205 52.62863433 130.76413427 57.43960214 130.7611053 62.25058734 C130.7566242 69.32881471 130.7390723 76.406849 130.7101047 83.48501766 C130.68587617 89.61834067 130.67816066 95.75158401 130.67642975 101.88495255 C130.67339885 104.49328793 130.66535571 107.10162241 130.65224457 109.70992661 C130.63522332 113.35608372 130.63705491 117.00176869 130.64355469 120.64794922 C130.62973251 122.26899567 130.62973251 122.26899567 130.6156311 123.92279053 C130.55862778 130.99787859 130.55862778 130.99787859 134 137 C139.20474508 139.91465724 144.09654249 140.61179078 150 141 C150 142.65 150 144.3 150 146 C129.21 146 108.42 146 87 146 C87 144.35 87 142.7 87 141 C87.95261719 140.91363281 88.90523437 140.82726562 89.88671875 140.73828125 C91.14097656 140.59777344 92.39523437 140.45726562 93.6875 140.3125 C95.54955078 140.12107422 95.54955078 140.12107422 97.44921875 139.92578125 C101.71015841 138.81484319 103.32938944 137.46337065 106 134 C106.92714974 130.5070752 107.14512651 127.17028476 107.20532227 123.56713867 C107.22550415 122.491698 107.24568604 121.41625732 107.26647949 120.30822754 C107.28295532 119.18944214 107.29943115 118.07065674 107.31640625 116.91796875 C107.33505737 115.88111938 107.3537085 114.84427002 107.3729248 113.77600098 C107.44107852 109.91325168 107.50131899 106.05036603 107.5625 102.1875 C107.706875 93.545625 107.85125 84.90375 108 76 C86.22 76 64.44 76 42 76 C42.12375 84.415 42.2475 92.83 42.375 101.5 C42.40899902 104.14193359 42.44299805 106.78386719 42.47802734 109.50585938 C42.51325912 111.61850202 42.54918321 113.73113329 42.5859375 115.84375 C42.60297729 117.46651855 42.60297729 117.46651855 42.62036133 119.12207031 C42.73330503 125.06045982 43.12842146 130.3416915 45 136 C48.54494488 139.10418797 52.22223987 139.58473857 56.8125 140.1875 C57.97394531 140.34605469 59.13539063 140.50460937 60.33203125 140.66796875 C61.21246094 140.77753906 62.09289062 140.88710938 63 141 C63 142.65 63 144.3 63 146 C42.21 146 21.42 146 0 146 C0 144.35 0 142.7 0 141 C0.89203125 140.87882813 1.7840625 140.75765625 2.703125 140.6328125 C3.87359375 140.46523438 5.0440625 140.29765625 6.25 140.125 C7.41015625 139.96257812 8.5703125 139.80015625 9.765625 139.6328125 C13.6465545 138.89695801 13.6465545 138.89695801 17 137 C18.67080373 133.53521114 19.25261866 130.74239367 19.26742554 126.91467285 C19.27595551 125.913741 19.28448547 124.91280914 19.29327393 123.88154602 C19.29236755 122.79463974 19.29146118 121.70773346 19.29052734 120.58789062 C19.29724457 119.43451706 19.30396179 118.28114349 19.31088257 117.09281921 C19.32987954 113.28058566 19.33378734 109.46852793 19.3359375 105.65625 C19.3407391 103.67682875 19.34554412 101.69740747 19.35085833 99.71798754 C19.36712408 93.49703727 19.37202879 87.27614487 19.37060547 81.05517578 C19.36940311 74.64245826 19.39052759 68.23007679 19.4220928 61.81744432 C19.44825487 56.30561763 19.45897287 50.79390076 19.45769465 45.28201246 C19.45718517 41.99258329 19.46470321 38.70352044 19.48405075 35.41413879 C19.50360711 31.74651007 19.49791304 28.07975158 19.48583984 24.41210938 C19.50269836 22.78174995 19.50269836 22.78174995 19.51989746 21.11845398 C19.48165599 15.20252753 19.48165599 15.20252753 17.13760376 9.86486816 C12.29308588 5.63845944 6.15315295 5.51959958 0 5 C0 3.35 0 1.7 0 0 Z " fill="#FF151E" transform="translate(501,399)"/>
<path d="M0 0 C8.44453928 9.37521784 12.41015625 18.13576277 12.41015625 30.67578125 C6.14015625 30.67578125 -0.12984375 30.67578125 -6.58984375 30.67578125 C-7.76171875 27.453125 -8.93359375 24.23046875 -10.10546875 21.0078125 C-11.57042584 17.71936936 -13.30397978 15.42565607 -15.58984375 12.67578125 C-15.58984375 12.01578125 -15.58984375 11.35578125 -15.58984375 10.67578125 C-16.17507813 10.39605469 -16.7603125 10.11632812 -17.36328125 9.828125 C-19.44029042 8.75318166 -21.28626719 7.55545801 -23.21484375 6.23828125 C-34.52343561 -0.71136247 -48.39146778 -1.06924827 -61.234375 1.3671875 C-67.73222059 3.36074988 -73.28137658 6.45570387 -78.58984375 10.67578125 C-79.20472656 11.15402344 -79.81960938 11.63226562 -80.453125 12.125 C-90.00436153 20.5326295 -94.78299225 34.65891963 -95.88916016 47.02075195 C-96.02621135 50.51605573 -96.05731325 53.99048055 -96.02734375 57.48828125 C-96.02049561 58.71716064 -96.01364746 59.94604004 -96.0065918 61.2121582 C-95.71165845 77.90847833 -91.58760136 91.08591612 -80.0390625 103.37890625 C-69.49620972 113.26598349 -57.01580669 115.46953525 -43.04296875 115.0234375 C-33.29164976 114.44161158 -24.71221891 111.43877051 -17.58984375 104.67578125 C-17.0484375 104.16273438 -16.50703125 103.6496875 -15.94921875 103.12109375 C-8.98148087 95.76625932 -6.44450959 87.06484293 -4.9453125 77.2890625 C-4.81265991 76.45846313 -4.68000732 75.62786377 -4.54333496 74.77209473 C-4.21977451 72.74089472 -3.90400978 70.70845548 -3.58984375 68.67578125 C-4.13885849 68.69052994 -4.68787323 68.70527863 -5.25352478 68.72047424 C-10.94678397 68.87242163 -16.64019156 69.01728498 -22.33374023 69.15795898 C-24.4610658 69.21146331 -26.58834611 69.26679889 -28.71557617 69.32397461 C-31.76601395 69.40565106 -34.81655172 69.48082806 -37.8671875 69.5546875 C-38.8244725 69.58172256 -39.78175751 69.60875763 -40.76805115 69.63661194 C-41.6488887 69.65670822 -42.52972626 69.6768045 -43.43725586 69.69750977 C-44.21669052 69.71749527 -44.99612518 69.73748077 -45.79917908 69.7580719 C-47.58984375 69.67578125 -47.58984375 69.67578125 -48.58984375 68.67578125 C-48.58984375 63.39578125 -48.58984375 58.11578125 -48.58984375 52.67578125 C-27.79984375 52.67578125 -7.00984375 52.67578125 14.41015625 52.67578125 C14.41015625 78.08578125 14.41015625 103.49578125 14.41015625 129.67578125 C10.12015625 129.67578125 5.83015625 129.67578125 1.41015625 129.67578125 C-0.23984375 124.39578125 -1.88984375 119.11578125 -3.58984375 113.67578125 C-4.90984375 114.99578125 -6.22984375 116.31578125 -7.58984375 117.67578125 C-21.63154806 130.30134776 -37.75850783 133.73957434 -56.18115234 132.87109375 C-74.16994153 131.41244472 -90.17179667 122.65335947 -101.83984375 108.98828125 C-111.41641745 96.2522232 -116.93239443 80.62607338 -117.58984375 64.67578125 C-117.64978516 63.34933594 -117.64978516 63.34933594 -117.7109375 61.99609375 C-118.18977005 40.75846196 -112.81161441 19.83688427 -98.58984375 3.67578125 C-97.9453125 2.92554688 -97.30078125 2.1753125 -96.63671875 1.40234375 C-84.83849437 -11.40091456 -68.82117485 -17.35007838 -51.6171875 -18.296875 C-32.08196454 -18.47332218 -14.35106088 -13.92834921 0 0 Z " fill="#FFFFFF" transform="translate(733.58984375,591.32421875)"/>
<path d="M0 0 C8.88505876 -0.04665045 17.77007438 -0.08203346 26.65522957 -0.10362434 C30.78240456 -0.11399473 34.90949484 -0.1280282 39.03662109 -0.15087891 C43.03074839 -0.17285104 47.02479498 -0.18461911 51.01897812 -0.18975449 C52.53135318 -0.19340706 54.04372458 -0.20053731 55.55606461 -0.21146011 C73.7761548 -0.33763886 91.14612531 0.72910275 104.90625 13.8125 C112.29752989 21.57960768 114.609943 29.48981741 114.47290039 40.09765625 C114.06444607 49.43122487 110.48137362 57.2866309 104 64 C97.04396789 69.84970494 88.54388181 73.1520394 80 76 C80.32572998 76.45101074 80.65145996 76.90202148 80.98706055 77.36669922 C81.97869621 78.73973322 82.97031206 80.11278153 83.96191406 81.48583984 C85.12648543 83.09824723 86.2912024 84.71054946 87.45605469 86.32275391 C90.45452436 90.47318257 93.45091809 94.62506594 96.44140625 98.78125 C102.54042699 107.25360086 108.63823026 115.72187749 115 124 C115.5053125 124.68449219 116.010625 125.36898437 116.53125 126.07421875 C123.73290635 135.2963398 134.05831734 138.31976073 145 141 C145 142.65 145 144.3 145 146 C110.46275498 149.00482547 110.46275498 149.00482547 101.99072266 144.34472656 C97.62791405 140.12491302 95.29095233 134.97813715 93.05224609 129.40576172 C91.50501035 125.86829976 89.40717079 123.3438998 86.9375 120.375 C83.20642823 115.61487457 79.66306412 110.76189711 76.1875 105.8125 C75.68726318 105.1105249 75.18702637 104.4085498 74.67163086 103.68530273 C71.92907175 99.82251271 69.29897513 95.92009302 66.76953125 91.9140625 C61.6598861 83.17866008 61.6598861 83.17866008 53.58203125 77.90625 C50.54796135 77.93524947 47.94730207 78.33259441 45 79 C44.01 78.505 44.01 78.505 43 78 C43.06713636 85.27775397 43.15699703 92.5549765 43.26245117 99.83227539 C43.29564804 102.30649492 43.32369618 104.78078922 43.34643555 107.25512695 C43.38007701 110.81754334 43.43239987 114.37927772 43.48828125 117.94140625 C43.49467117 119.04271378 43.5010611 120.1440213 43.50764465 121.27870178 C43.62109281 127.24250782 43.98071837 131.78988462 47 137 C52.3543329 140.278163 57.81483914 140.63909524 64 141 C64 142.65 64 144.3 64 146 C42.88 146 21.76 146 0 146 C0 144.35 0 142.7 0 141 C0.95261719 140.91363281 1.90523437 140.82726562 2.88671875 140.73828125 C4.14097656 140.59777344 5.39523437 140.45726562 6.6875 140.3125 C8.54955078 140.12107422 8.54955078 140.12107422 10.44921875 139.92578125 C14.66763566 138.82592998 16.28706591 137.35719302 19 134 C19.96314482 131.11056555 20.12986725 129.27922057 20.14044189 126.27580261 C20.14615204 125.30430771 20.15186218 124.33281281 20.15774536 123.33187866 C20.15886322 122.26740509 20.15998108 121.20293152 20.16113281 120.10620117 C20.16609772 118.98398666 20.17106262 117.86177216 20.17617798 116.70555115 C20.19081007 112.98468416 20.19760335 109.26385981 20.203125 105.54296875 C20.20887555 102.96088154 20.21463329 100.37879434 20.22039795 97.79670715 C20.22956663 93.07149474 20.23586575 88.3462994 20.2388947 83.62107962 C20.24337366 76.67247179 20.26091514 69.72406085 20.2898953 62.77551287 C20.31414223 56.75218235 20.32184027 50.72894476 20.32357025 44.70556068 C20.32659886 42.14550009 20.33463436 39.58544037 20.34775543 37.02541161 C20.36480063 33.44411664 20.36293909 29.86330144 20.35644531 26.28198242 C20.3656601 25.22358154 20.37487488 24.16518066 20.3843689 23.07470703 C20.35364707 17.66885919 20.1882627 13.59990865 17 9 C11.58525402 5.79535442 6.20713584 5.362187 0 5 C0 3.35 0 1.7 0 0 Z M43 11 C43 30.47 43 49.94 43 70 C63.73751694 70.24748372 63.73751694 70.24748372 80.80078125 60.28515625 C86.89743389 53.91080929 89.07533964 47.88475366 89.4375 39.125 C89.22981162 31.72374122 87.2393336 24.6504124 82.8125 18.625 C70.86542852 7.47439995 58.46685718 8.79044897 43 11 Z " fill="#FF151E" transform="translate(791,399)"/>
<path d="M0 0 C33 0 66 0 100 0 C100 5.61 100 11.22 100 17 C73.6 17 47.2 17 20 17 C20 31.52 20 46.04 20 61 C44.75 61 69.5 61 95 61 C95 66.61 95 72.22 95 78 C70.25 78 45.5 78 20 78 C20 93.84 20 109.68 20 126 C46.73 126 73.46 126 101 126 C101 131.94 101 137.88 101 144 C67.67 144 34.34 144 0 144 C0 96.48 0 48.96 0 0 Z " fill="#FFFFFF" transform="translate(501,577)"/>
<path d="M0 0 C0.91644287 0.00523682 1.83288574 0.01047363 2.77709961 0.01586914 C4.26113281 0.02070312 4.26113281 0.02070312 5.77514648 0.02563477 C6.81606445 0.03401367 7.85698242 0.04239258 8.92944336 0.05102539 C10.49662109 0.05779297 10.49662109 0.05779297 12.09545898 0.06469727 C14.68600996 0.07652627 17.27644895 0.0930085 19.86694336 0.11352539 C23.70528553 8.48809013 27.060699 17.04304181 30.42944336 25.61352539 C31.08658452 27.28149572 31.74372982 28.94946443 32.40087891 30.61743164 C38.5127726 46.14849838 44.54329182 61.71112766 50.5637207 77.27783203 C54.70904852 87.99252559 58.87397348 98.69900714 63.07788086 109.39086914 C63.49871445 110.46204987 63.91954803 111.53323059 64.35313416 112.63687134 C66.37545203 117.78374447 68.40121856 122.92921397 70.43261719 128.07250977 C71.15435593 129.907741 71.87596184 131.74302448 72.59741211 133.57836914 C72.93078583 134.41859116 73.26415955 135.25881317 73.6076355 136.12449646 C75.86694336 141.8864563 75.86694336 141.8864563 75.86694336 144.11352539 C68.60694336 144.11352539 61.34694336 144.11352539 53.86694336 144.11352539 C49.87730987 134.80681181 46.40094959 125.41506503 43.05444336 115.86352539 C41.34256836 110.99602539 39.63069336 106.12852539 37.86694336 101.11352539 C18.39694336 101.11352539 -1.07305664 101.11352539 -21.13305664 101.11352539 C-26.02582909 114.51612981 -26.02582909 114.51612981 -30.91601562 127.91967773 C-31.52863324 129.59630712 -32.14133878 131.2729044 -32.75415039 132.94946289 C-33.07291138 133.82449463 -33.39167236 134.69952637 -33.72009277 135.60107422 C-34.02451294 136.43324463 -34.32893311 137.26541504 -34.64257812 138.12280273 C-34.9068309 138.84672211 -35.17108368 139.57064148 -35.44334412 140.3164978 C-36.13305664 142.11352539 -36.13305664 142.11352539 -37.13305664 144.11352539 C-44.06305664 144.11352539 -50.99305664 144.11352539 -58.13305664 144.11352539 C-57.00815006 137.36408592 -57.00815006 137.36408592 -55.62451172 133.91479492 C-55.15926338 132.74183617 -55.15926338 132.74183617 -54.68461609 131.54518127 C-54.34404678 130.70406296 -54.00347748 129.86294464 -53.65258789 128.99633789 C-53.29215897 128.0918541 -52.93173004 127.1873703 -52.56037903 126.25547791 C-51.77456234 124.28533798 -50.98603512 122.31627752 -50.19512939 120.34817505 C-48.48244693 116.08604432 -46.78284197 111.81873688 -45.08239746 107.55171204 C-44.17672805 105.27938388 -43.27038249 103.00732511 -42.36340332 100.73551941 C-37.58683907 88.76577624 -32.8749395 76.77086227 -28.16912842 64.77316284 C-26.76496129 61.19362687 -25.35961006 57.61455811 -23.95385742 54.03564453 C-20.25805171 44.62600522 -16.56345062 35.21590541 -12.878479 25.80201721 C-11.63950943 22.63780179 -10.39869014 19.47431414 -9.15740967 16.31100464 C-8.60536737 14.90263446 -8.05428007 13.49388952 -7.50421143 12.08474731 C-6.7721248 10.20932256 -6.03669386 8.33520425 -5.30102539 6.46118164 C-4.90165771 5.44032471 -4.50229004 4.41946777 -4.09082031 3.36767578 C-2.72147377 0.14484209 -2.72147377 0.14484209 0 0 Z M7.86694336 20.11352539 C7.45444336 21.24556396 7.04194336 22.37760254 6.61694336 23.54394531 C4.70216521 28.79699515 2.78487305 34.0491255 0.86694336 39.30102539 C0.52468719 40.23858673 0.18243103 41.17614807 -0.17019653 42.14212036 C-4.37193996 53.6468498 -8.5827587 65.14443558 -13.04907227 76.54980469 C-14.5879059 80.2223941 -14.5879059 80.2223941 -15.13305664 84.11352539 C0.37694336 84.11352539 15.88694336 84.11352539 31.86694336 84.11352539 C29.44661456 75.98750798 29.44661456 75.98750798 26.69042969 68.02124023 C26.29024124 66.94087494 25.8900528 65.86050964 25.47773743 64.74740601 C24.84474983 63.05304916 24.84474983 63.05304916 24.19897461 61.32446289 C23.75929855 60.14002594 23.3196225 58.95558899 22.86662292 57.73526001 C21.70988646 54.62084194 20.55047955 51.50744624 19.38970947 48.39453125 C18.20079146 45.20405848 17.01547501 42.01224832 15.82983398 38.82055664 C13.51214895 32.58365627 11.1909277 26.34808107 8.86694336 20.11352539 C8.53694336 20.11352539 8.20694336 20.11352539 7.86694336 20.11352539 Z " fill="#FFFFFF" transform="translate(816.133056640625,576.886474609375)"/>
<path d="M0 0 C14.58571195 -0.02333003 29.17142103 -0.04091327 43.75714779 -0.05181217 C50.52910421 -0.05697491 57.30104905 -0.06401718 64.07299805 -0.07543945 C70.60224426 -0.08644714 77.13148294 -0.09227625 83.66073799 -0.09487724 C86.15793612 -0.09673199 88.65513355 -0.10035354 91.15232658 -0.10573006 C94.63664069 -0.11293684 98.12090431 -0.1139911 101.60522461 -0.11352539 C102.64891205 -0.11712067 103.69259949 -0.12071594 104.76791382 -0.12442017 C105.71167374 -0.1230455 106.65543365 -0.12167084 107.62779236 -0.12025452 C108.45279708 -0.12117631 109.2778018 -0.1220981 110.12780666 -0.12304783 C112 0 112 0 113 1 C113.24424629 3.73495535 113.42714988 6.44659049 113.5625 9.1875 C113.6049585 9.9923584 113.64741699 10.7972168 113.69116211 11.62646484 C114.04120953 18.7555997 114.10327702 25.86241015 114 33 C112.35 33 110.7 33 109 33 C108.69707031 31.97519531 108.39414062 30.95039063 108.08203125 29.89453125 C107.65967319 28.53359972 107.23644997 27.17293647 106.8125 25.8125 C106.61591797 25.13896484 106.41933594 24.46542969 106.21679688 23.77148438 C104.4993862 18.35503531 101.93929894 14.89632189 97.0625 11.75 C90.9939369 9.54324978 84.50291549 9.79024017 78.1328125 9.68359375 C77.21491943 9.66494263 76.29702637 9.6462915 75.35131836 9.6270752 C71.94263775 9.559093 68.53380834 9.49874362 65.125 9.4375 C57.49375 9.293125 49.8625 9.14875 42 9 C42 27.48 42 45.96 42 65 C51.6525 64.8453125 51.6525 64.8453125 61.5 64.6875 C63.51544922 64.66260498 65.53089844 64.63770996 67.60742188 64.61206055 C69.22788738 64.57973659 70.84833234 64.54635811 72.46875 64.51171875 C73.29149414 64.50547485 74.11423828 64.49923096 74.96191406 64.49279785 C80.58810386 64.35449015 84.86371961 63.34809521 90 61 C92.92233807 57.52046157 93.5534077 54.1261461 94.1875 49.6875 C94.42533203 48.08455078 94.42533203 48.08455078 94.66796875 46.44921875 C94.77753906 45.64097656 94.88710938 44.83273437 95 44 C96.98 44 98.96 44 101 44 C101 61.16 101 78.32 101 96 C99.35 96 97.7 96 96 96 C95.5978125 94.5459375 95.5978125 94.5459375 95.1875 93.0625 C94.79299631 91.70794538 94.39702154 90.35381878 94 89 C93.67322266 87.83017578 93.67322266 87.83017578 93.33984375 86.63671875 C91.97048718 82.00987545 91.97048718 82.00987545 89.3125 78.0625 C83.10862306 75.21207006 76.84283326 74.68697278 70.125 74.5859375 C69.31506592 74.56657135 68.50513184 74.5472052 67.6706543 74.5272522 C65.11387266 74.46803998 62.55704455 74.42130754 60 74.375 C58.2538879 74.33676633 56.50779358 74.29771157 54.76171875 74.2578125 C50.5079589 74.16238748 46.25411096 74.07814451 42 74 C42.11805849 81.40163863 42.24287812 88.80314151 42.37231445 96.20458984 C42.41552504 98.72051432 42.45720944 101.23646551 42.49731445 103.75244141 C42.55535433 107.37670934 42.61895053 111.00084456 42.68359375 114.625 C42.70030624 115.74302002 42.71701874 116.86104004 42.73423767 118.01293945 C42.84220281 123.7534905 43.15455275 129.31955726 44 135 C48.25213762 136.19144436 52.40238177 136.16203681 56.7890625 136.16796875 C57.64752777 136.17129715 58.50599304 136.17462555 59.39047241 136.17805481 C61.20773789 136.18311324 63.02501264 136.18546347 64.84228516 136.18530273 C67.59423603 136.18747571 70.34577697 136.20560537 73.09765625 136.22460938 C92.01762788 136.35932639 92.01762788 136.35932639 107.546875 126.5078125 C111.91517448 121.7872308 114.88548304 116.19749804 117.97265625 110.59765625 C120 108 120 108 122.74609375 107.62109375 C123.48988281 107.74613281 124.23367188 107.87117188 125 108 C122.81624892 121.10250647 117.31811233 133.43821866 113 146 C75.71 146 38.42 146 0 146 C0 144.35 0 142.7 0 141 C0.88042969 140.89042969 1.76085937 140.78085937 2.66796875 140.66796875 C3.82941406 140.50941406 4.99085938 140.35085938 6.1875 140.1875 C7.33605469 140.03667969 8.48460937 139.88585937 9.66796875 139.73046875 C14.28462902 138.7404191 14.28462902 138.7404191 18 136 C20.15241454 129.2688582 20.28895667 122.29388024 20.25878906 115.29296875 C20.2622937 114.27369293 20.26579834 113.25441711 20.26940918 112.20425415 C20.27814662 108.86526495 20.27240565 105.52649101 20.265625 102.1875 C20.26697394 99.84920206 20.26891639 97.5109044 20.27142334 95.17260742 C20.27436379 90.28398963 20.27011169 85.39544517 20.26074219 80.50683594 C20.2493484 74.25957907 20.25591364 68.0124941 20.26788712 61.76524353 C20.27513485 56.94037597 20.27280441 52.11554875 20.26763153 47.29067993 C20.26630309 44.987925 20.26791433 42.68516634 20.27259064 40.38241577 C20.27770385 37.15718972 20.26987849 33.93223709 20.25878906 30.70703125 C20.26283752 29.76751617 20.26688599 28.8280011 20.27105713 27.86001587 C20.23353492 21.93063521 20.17361751 15.58394233 18 10 C14.51781078 6.75083121 11.43164105 6.37603087 6.75 5.8125 C5.48671875 5.65394531 4.2234375 5.49539063 2.921875 5.33203125 C1.47554687 5.16767578 1.47554687 5.16767578 0 5 C0 3.35 0 1.7 0 0 Z " fill="#FF151E" transform="translate(659,399)"/>
<path d="M0 0 C3.34017143 1.3917381 5.42856078 1.89935259 9 1.25 C10.89858275 -1.05305165 10.89858275 -1.05305165 12 -3.75 C12.33 -4.41 12.66 -5.07 13 -5.75 C14.65 -5.75 16.3 -5.75 18 -5.75 C18 11.08 18 27.91 18 45.25 C16.35 45.25 14.7 45.25 13 45.25 C12.68546875 44.0434375 12.3709375 42.836875 12.046875 41.59375 C11.61503547 39.97904568 11.1827182 38.36446907 10.75 36.75 C10.54503906 35.95851563 10.34007812 35.16703125 10.12890625 34.3515625 C7.67572755 25.25516291 7.67572755 25.25516291 2.37402344 17.65039062 C1 16.25 1 16.25 1 14.25 C0.19755859 13.84974609 0.19755859 13.84974609 -0.62109375 13.44140625 C-2.3861464 12.55743079 -4.14879971 11.66866109 -5.91015625 10.77734375 C-6.95042969 10.25269531 -7.99070312 9.72804688 -9.0625 9.1875 C-10.10535156 8.66027344 -11.14820313 8.13304687 -12.22265625 7.58984375 C-19.6183168 4.02203564 -29.20238479 3.90255895 -37.1015625 6.12109375 C-42.79284612 8.74321083 -45.89699141 11.84475923 -49 17.25 C-49.95231986 20.10695958 -50.19511098 22.08477041 -50.25 25.0625 C-50.27578125 25.89394531 -50.3015625 26.72539062 -50.328125 27.58203125 C-49.32131207 35.76837923 -43.09699527 40.46415265 -37 45.25 C-33.27210822 47.764358 -29.42417859 49.99519649 -25.5 52.1875 C-24.4569873 52.78449707 -23.41397461 53.38149414 -22.33935547 53.99658203 C-16.73047246 57.19540483 -11.0764805 60.30578328 -5.40161133 63.38549805 C8.51149427 70.96049398 21.26983298 79.77930695 26.71875 95.296875 C29.21297443 104.28921045 28.22937962 114.3557302 24.421875 122.83984375 C17.58066805 134.43606542 6.94681372 142.17553322 -5.87329102 145.77612305 C-19.60256762 148.83530407 -33.61710061 145.88648415 -46.69799805 141.65234375 C-53.7361477 139.29511008 -53.7361477 139.29511008 -61 140.25 C-61.66 142.23 -62.32 144.21 -63 146.25 C-64.65 146.25 -66.3 146.25 -68 146.25 C-68 129.42 -68 112.59 -68 95.25 C-66.35 95.58 -64.7 95.91 -63 96.25 C-62.54560547 97.93416016 -62.54560547 97.93416016 -62.08203125 99.65234375 C-58.33593424 113.19790372 -54.54191243 124.02824083 -41.76953125 131.56640625 C-30.92481747 136.76803003 -19.15015199 137.77807815 -7.65234375 134.359375 C-2.15830015 132.06142451 1.49398144 128.27371244 5 123.5625 C6.93002965 117.16927679 7.23477841 110.1228613 4.4375 103.9375 C-0.91586334 95.31436056 -8.59142415 90.82044088 -17.3125 86 C-18.47700315 85.34246274 -19.64056894 84.68326284 -20.80322266 84.02246094 C-23.12064627 82.7055067 -25.4400855 81.39245562 -27.76123047 80.08203125 C-63.01254655 60.14189286 -63.01254655 60.14189286 -68.9375 42 C-71.28948012 31.84114612 -69.76292246 23.03094348 -64.7265625 13.97265625 C-58.60080134 4.31280211 -50.22187699 -2.33482161 -39.015625 -5.27734375 C-25.37069039 -7.41599283 -12.59529827 -5.73511402 0 0 Z " fill="#FF151E" transform="translate(459,401.75)"/>
<path d="M0 0 C6.6 0 13.2 0 20 0 C20 41.58 20 83.16 20 126 C45.08 126 70.16 126 96 126 C96 131.94 96 137.88 96 144 C64.32 144 32.64 144 0 144 C0 96.48 0 48.96 0 0 Z " fill="#FFFFFF" transform="translate(390,577)"/>
<path d="M0 0 C6.6 0 13.2 0 20 0 C20 41.58 20 83.16 20 126 C44.75 126 69.5 126 95 126 C95 131.94 95 137.88 95 144 C63.65 144 32.3 144 0 144 C0 96.48 0 48.96 0 0 Z " fill="#FFFFFF" transform="translate(905,577)"/>
<path d="M0 0 C0.33 0 0.66 0 1 0 C1 5.94 1 11.88 1 18 C4.63 18 8.26 18 12 18 C12 18.99 12 19.98 12 21 C8.04 21 4.08 21 0 21 C0 14.07 0 7.14 0 0 Z " fill="#FE3232" transform="translate(162,465)"/>
</svg>
